<?xml version="1.0" encoding="utf-8"?>
<svg xmlns="http://www.w3.org/2000/svg" viewBox="0 0 100.009 100.0096" width="100.009px" height="100.01px">
  <g transform="matrix(1, 0, 0, 1, -146.20730590820312, -16.643192291259766)">
    <path d="M 185.262 44.997 L 179.98 34.554 C 176.576 36.274 173.509 38.511 170.861 41.144 L 179.111 49.445 C 180.896 47.666 182.965 46.159 185.262 44.997 Z" style="stroke-width: 1; fill: rgb(234, 246, 239);"/>
    <path d="M 172.238 70.373 L 160.68 72.166 C 161.276 76 162.457 79.594 164.118 82.881 L 174.561 77.602 C 173.441 75.383 172.642 72.957 172.238 70.373 Z" style="stroke-width: 1; fill: rgb(234, 246, 239);"/>
    <path d="M 174.632 55.571 L 164.221 50.227 C 162.515 53.547 161.315 57.15 160.705 60.915 L 172.26 62.781 C 172.668 60.238 173.479 57.811 174.632 55.571 Z" style="stroke-width: 1; fill: rgb(234, 246, 239);"/>
    <path d="M 213.418 49.547 L 221.717 41.299 C 219.058 38.625 215.988 36.384 212.634 34.658 L 207.291 45.067 C 209.554 46.232 211.622 47.745 213.418 49.547 Z" style="stroke-width: 1; fill: rgb(234, 246, 239);"/>
    <path d="M 200.081 42.696 L 201.947 31.141 C 198.313 30.557 194.527 30.523 190.694 31.116 L 192.489 42.677 C 195.076 42.274 197.631 42.299 200.081 42.696 Z" style="stroke-width: 1; fill: rgb(234, 246, 239);"/>
    <path d="M 207.164 88.301 L 212.444 98.744 C 215.848 97.023 218.917 94.787 221.563 92.15 L 213.315 83.855 C 211.529 85.633 209.46 87.141 207.164 88.301 Z" style="stroke-width: 1; fill: rgb(234, 246, 239);"/>
    <path d="M 217.795 77.729 L 228.203 83.071 C 229.911 79.749 231.111 76.147 231.719 72.382 L 220.167 70.517 C 219.758 73.055 218.947 75.485 217.795 77.729 Z" style="stroke-width: 1; fill: rgb(234, 246, 239);"/>
    <path d="M 228.309 50.417 L 217.865 55.699 C 218.985 57.914 219.783 60.34 220.184 62.927 L 231.746 61.131 C 231.746 61.131 231.746 61.131 231.746 61.13 C 231.151 57.297 229.968 53.7 228.309 50.417 Z" style="stroke-width: 1; fill: rgb(234, 246, 239);"/>
    <path d="M 192.348 90.602 L 190.479 102.155 C 194.112 102.743 197.9 102.78 201.732 102.182 L 199.937 90.621 C 197.35 91.022 194.795 90.995 192.348 90.602 Z" style="stroke-width: 1; fill: rgb(234, 246, 239);"/>
    <path d="M 179.008 83.752 L 170.71 91.998 C 173.371 94.672 176.437 96.914 179.792 98.639 L 185.134 88.231 C 182.871 87.069 180.804 85.555 179.008 83.752 Z" style="stroke-width: 1; fill: rgb(234, 246, 239);"/>
    <path d="M 180.542 50.881 L 179.11 49.443 C 177.307 51.238 175.796 53.307 174.631 55.57 L 176.436 56.497 C 177.503 54.423 178.89 52.527 180.542 50.881 Z" style="stroke-width: 1; fill: rgb(234, 246, 239);"/>
    <path d="M 174.244 70.061 C 173.877 67.691 173.899 65.351 174.264 63.104 L 172.26 62.781 C 171.863 65.231 171.842 67.785 172.239 70.371 C 172.239 70.371 172.239 70.371 172.24 70.373 L 174.244 70.061 Z" style="stroke-width: 1; fill: rgb(234, 246, 239);"/>
    <path d="M 192.801 44.683 L 192.489 42.677 C 189.902 43.077 187.477 43.876 185.261 44.997 L 186.177 46.806 C 188.209 45.781 190.431 45.051 192.801 44.683 Z" style="stroke-width: 1; fill: rgb(234, 246, 239);"/>
    <path d="M 176.37 76.684 L 174.561 77.602 C 175.722 79.897 177.23 81.965 179.007 83.752 L 180.445 82.32 C 178.816 80.684 177.435 78.788 176.37 76.684 Z" style="stroke-width: 1; fill: rgb(234, 246, 239);"/>
    <path d="M 206.365 46.871 L 207.291 45.067 C 205.051 43.914 202.621 43.103 200.081 42.696 L 199.756 44.699 C 202.084 45.074 204.312 45.815 206.365 46.871 Z" style="stroke-width: 1; fill: rgb(234, 246, 239);"/>
    <path d="M 211.885 82.414 L 213.316 83.855 C 215.119 82.056 216.63 79.988 217.796 77.726 L 215.988 76.8 C 214.923 78.873 213.536 80.77 211.885 82.414 Z" style="stroke-width: 1; fill: rgb(234, 246, 239);"/>
    <path d="M 218.164 70.192 L 220.166 70.514 C 220.559 68.065 220.586 65.514 220.184 62.927 L 218.18 63.239 C 218.547 65.607 218.525 67.947 218.164 70.192 Z" style="stroke-width: 1; fill: rgb(234, 246, 239);"/>
    <path d="M 211.979 50.976 C 213.608 52.614 214.989 54.509 216.054 56.613 L 217.864 55.698 C 216.703 53.402 215.195 51.333 213.418 49.546 L 211.979 50.976 Z" style="stroke-width: 1; fill: rgb(234, 246, 239);"/>
    <path d="M 186.061 86.424 L 185.134 88.229 C 187.376 89.383 189.804 90.194 192.348 90.602 L 192.669 88.6 C 190.34 88.221 188.113 87.481 186.061 86.424 Z" style="stroke-width: 1; fill: rgb(234, 246, 239);"/>
    <path d="M 199.623 88.614 L 199.936 90.622 C 202.522 90.218 204.948 89.423 207.164 88.302 L 206.249 86.491 C 204.216 87.518 201.993 88.248 199.623 88.614 Z" style="stroke-width: 1; fill: rgb(234, 246, 239);"/>
    <path d="M 192.608 64.799 L 176.435 56.497 C 175.379 58.548 174.637 60.775 174.263 63.104 L 192.211 66.002 C 192.28 65.577 192.417 65.171 192.608 64.799 Z" style="stroke-width: 1; fill: rgb(234, 246, 239);"/>
    <path d="M 193.339 69.506 L 180.446 82.321 C 182.091 83.975 183.988 85.36 186.06 86.425 L 194.365 70.253 C 193.985 70.059 193.64 69.807 193.339 69.506 Z" style="stroke-width: 1; fill: rgb(234, 246, 239);"/>
    <path d="M 192.206 67.271 L 174.244 70.061 C 174.613 72.432 175.345 74.653 176.37 76.684 L 192.596 68.479 C 192.407 68.11 192.271 67.707 192.206 67.271 Z" style="stroke-width: 1; fill: rgb(234, 246, 239);"/>
    <path d="M 194.383 63.03 L 186.177 46.805 C 184.073 47.869 182.178 49.251 180.542 50.88 L 193.357 63.775 C 193.655 63.477 193.999 63.223 194.383 63.03 Z" style="stroke-width: 1; fill: rgb(234, 246, 239);"/>
    <path d="M 196.86 62.648 L 199.756 44.699 C 197.511 44.337 195.172 44.313 192.801 44.682 L 195.59 62.643 C 196.02 62.574 196.449 62.581 196.86 62.648 Z" style="stroke-width: 1; fill: rgb(234, 246, 239);"/>
    <path d="M 199.816 68.5 L 215.988 76.801 C 217.045 74.748 217.787 72.518 218.164 70.192 L 200.217 67.294 C 200.147 67.717 200.01 68.123 199.816 68.5 Z" style="stroke-width: 1; fill: rgb(234, 246, 239);"/>
    <path d="M 206.365 46.871 L 198.062 63.043 C 198.443 63.236 198.786 63.491 199.085 63.794 L 211.978 50.977 C 210.333 49.325 208.437 47.937 206.365 46.871 Z" style="stroke-width: 1; fill: rgb(234, 246, 239);"/>
    <path d="M 200.221 66.024 C 200.221 66.024 200.221 66.024 200.221 66.024 L 218.18 63.238 C 217.814 60.868 217.08 58.643 216.055 56.613 L 199.833 64.82 C 200.02 65.19 200.155 65.596 200.221 66.024 Z" style="stroke-width: 1; fill: rgb(234, 246, 239);"/>
    <path d="M 195.567 70.655 L 192.669 88.6 C 194.913 88.959 197.253 88.985 199.623 88.614 L 196.834 70.661 C 196.402 70.725 195.977 70.719 195.567 70.655 Z" style="stroke-width: 1; fill: rgb(234, 246, 239);"/>
    <path d="M 198.043 70.268 L 206.248 86.491 C 208.352 85.425 210.248 84.046 211.885 82.415 L 199.069 69.522 C 198.771 69.821 198.426 70.075 198.043 70.268 Z" style="stroke-width: 1; fill: rgb(234, 246, 239);"/>
    <path d="M 197.829 66.396 C 197.97 67.293 197.36 68.127 196.463 68.266 C 195.572 68.407 194.731 67.794 194.593 66.9 C 194.455 66.008 195.068 65.168 195.961 65.03 C 196.857 64.892 197.691 65.505 197.829 66.396 Z" style="stroke-width: 1; fill: rgb(234, 246, 239);"/>
    <path d="M 240.841 44.08 C 238.449 39.348 235.34 35.081 231.675 31.399 C 227.974 27.683 223.71 24.564 219.048 22.168 C 214.427 19.791 209.419 18.123 204.186 17.278 C 199.134 16.463 193.87 16.414 188.537 17.24 C 183.21 18.069 178.21 19.714 173.642 22.02 C 168.91 24.416 164.644 27.524 160.962 31.188 C 157.246 34.886 154.127 39.153 151.73 43.818 C 149.354 48.433 147.687 53.44 146.843 58.677 C 146.027 63.732 145.978 68.992 146.804 74.32 C 147.632 79.654 149.276 84.652 151.584 89.22 C 153.98 93.95 157.087 98.216 160.752 101.898 C 164.451 105.613 168.718 108.73 173.379 111.13 C 177.996 113.505 183.004 115.175 188.239 116.021 C 193.292 116.832 198.555 116.882 203.883 116.056 C 209.216 115.228 214.215 113.581 218.782 111.275 C 223.515 108.884 227.78 105.775 231.461 102.111 C 235.176 98.41 238.296 94.146 240.695 89.482 C 243.068 84.861 244.738 79.853 245.583 74.619 C 246.395 69.57 246.447 64.306 245.618 58.974 C 244.792 53.645 243.148 48.647 240.841 44.08 Z M 234.106 72.766 C 233.458 76.786 232.178 80.629 230.355 84.172 L 228.204 83.07 C 226.479 86.424 224.236 89.492 221.563 92.15 L 223.267 93.867 C 220.444 96.679 217.167 99.064 213.537 100.902 L 212.444 98.744 C 209.16 100.402 205.564 101.588 201.731 102.182 L 202.102 104.569 C 198.01 105.206 193.972 105.167 190.093 104.542 L 190.479 102.155 C 186.714 101.548 183.111 100.348 179.791 98.639 L 178.686 100.791 C 175.107 98.949 171.834 96.555 168.996 93.703 L 170.71 91.998 C 168.075 89.353 165.838 86.285 164.118 82.881 L 161.959 83.973 C 160.187 80.467 158.927 76.631 158.289 72.539 L 160.682 72.166 C 160.086 68.334 160.121 64.548 160.705 60.915 L 158.318 60.53 C 158.965 56.511 160.249 52.666 162.072 49.123 L 164.22 50.227 C 165.949 46.873 168.19 43.807 170.86 41.143 L 169.158 39.431 C 171.981 36.619 175.257 34.231 178.887 32.396 L 179.979 34.553 C 183.264 32.893 186.861 31.711 190.694 31.115 L 190.323 28.725 C 194.415 28.086 198.455 28.128 202.331 28.752 L 201.947 31.139 C 205.711 31.748 209.312 32.95 212.634 34.656 L 213.738 32.506 C 217.317 34.349 220.592 36.74 223.43 39.594 L 221.717 41.297 C 224.351 43.943 226.588 47.011 228.309 50.415 L 230.467 49.323 C 232.238 52.83 233.501 56.667 234.135 60.758 L 231.746 61.13 C 232.344 64.964 232.306 68.748 231.719 72.38 L 234.106 72.766 Z" style="stroke-width: 1; fill: rgb(234, 246, 239);"/>
  </g>
</svg>